<svg xmlns="http://www.w3.org/2000/svg" xmlns:xlink="http://www.w3.org/1999/xlink" width="65" height="65" viewBox="0 0 65 65">
  <defs>
    <filter id="패스_4">
      <feOffset dy="3" input="SourceAlpha"/>
      <feGaussianBlur stdDeviation="3" result="blur"/>
      <feFlood flood-color="#878787" flood-opacity="0.161" result="color"/>
      <feComposite operator="out" in="SourceGraphic" in2="blur"/>
      <feComposite operator="in" in="color"/>
      <feComposite operator="in" in2="SourceGraphic"/>
    </filter>
  </defs>
  <g id="그룹_8" data-name="그룹 8" transform="translate(-4809 219)">
    <path id="패스_3" data-name="패스 3" d="M5.417,0H59.583A5.417,5.417,0,0,1,65,5.417V59.583A5.417,5.417,0,0,1,59.583,65H5.417A5.417,5.417,0,0,1,0,59.583V5.417A5.417,5.417,0,0,1,5.417,0Z" transform="translate(4809 -219)" fill="#fbe058"/>
    <g data-type="innerShadowGroup">
      <path id="패스_4-2" data-name="패스 4" d="M-20.449-.924V-6.71l-4.686-9h4.378l2.64,5.39h.066l2.6-5.39h3.784l-4.642,9V-.924ZM-5.071-10.01q-1.584,0-1.782,2.244h3.432a2.894,2.894,0,0,0-.4-1.727A1.479,1.479,0,0,0-5.071-10.01Zm.418,9.284q-5.984,0-5.984-5.764v-.286A5.689,5.689,0,0,1-9.13-10.934a5.419,5.419,0,0,1,4.059-1.54,4.94,4.94,0,0,1,4,1.474A6.689,6.689,0,0,1,.165-6.622v.968h-7a2.345,2.345,0,0,0,.9,1.793,4.1,4.1,0,0,0,2.244.495A9.126,9.126,0,0,0-.3-4.048v2.31A8.473,8.473,0,0,1-4.653-.726ZM6.3-3.08a1.761,1.761,0,0,0,1.364-.462v-2.2l-1.32.132a1.54,1.54,0,0,0-.957.363,1.243,1.243,0,0,0-.3.913Q5.093-3.08,6.3-3.08ZM5.027-.726A3.824,3.824,0,0,1,2.464-1.54a2.973,2.973,0,0,1-.957-2.4A2.887,2.887,0,0,1,2.552-6.413,6.507,6.507,0,0,1,5.6-7.458l2.068-.308v-.462a1.27,1.27,0,0,0-.462-1.166A3.627,3.627,0,0,0,5.467-9.68a13.459,13.459,0,0,0-2.992.33v-2.464a12.27,12.27,0,0,1,4.422-.66,5.8,5.8,0,0,1,3.355.814A3.028,3.028,0,0,1,11.407-9V-.924h-3.1L8.041-1.8h-.11A3.355,3.355,0,0,1,5.027-.726Zm8.668-.22v-15.73h3.762v5.3h.088a5.361,5.361,0,0,1,3.476-1.1q3.344,0,3.344,3.1V-.946h-3.74V-8.338a1.212,1.212,0,0,0-.319-.957,1.721,1.721,0,0,0-1.111-.275,4.644,4.644,0,0,0-1.738.374v8.25ZM-17.248,24.076V9.292h4.136V21.106H-7.5v2.97Zm11.792.484V21.282h3.608V24.56Zm.22-5.522-.572-10.6H-1.54l-.528,10.6ZM.638,24.054V12.724H4.246v.99h.11a5.492,5.492,0,0,1,3.52-1.188A2.839,2.839,0,0,1,10.582,13.8h.088a6.167,6.167,0,0,1,3.762-1.276,3.339,3.339,0,0,1,2.31.715,3.023,3.023,0,0,1,.792,2.343v8.47h-3.74V16.64a1.262,1.262,0,0,0-.286-.935,1.376,1.376,0,0,0-.968-.275,4.357,4.357,0,0,0-1.584.374,1.262,1.262,0,0,0,.011.154q.011.088.011.11v7.986H7.238V16.64a1.232,1.232,0,0,0-.3-.935,1.382,1.382,0,0,0-.957-.275A3.885,3.885,0,0,0,4.4,15.8v8.25Z" transform="translate(4842 -190)" fill="#64adfa"/>
      <g transform="matrix(1, 0, 0, 1, 4809, -219)" filter="url(#패스_4)">
        <path id="패스_4-3" data-name="패스 4" d="M-20.449-.924V-6.71l-4.686-9h4.378l2.64,5.39h.066l2.6-5.39h3.784l-4.642,9V-.924ZM-5.071-10.01q-1.584,0-1.782,2.244h3.432a2.894,2.894,0,0,0-.4-1.727A1.479,1.479,0,0,0-5.071-10.01Zm.418,9.284q-5.984,0-5.984-5.764v-.286A5.689,5.689,0,0,1-9.13-10.934a5.419,5.419,0,0,1,4.059-1.54,4.94,4.94,0,0,1,4,1.474A6.689,6.689,0,0,1,.165-6.622v.968h-7a2.345,2.345,0,0,0,.9,1.793,4.1,4.1,0,0,0,2.244.495A9.126,9.126,0,0,0-.3-4.048v2.31A8.473,8.473,0,0,1-4.653-.726ZM6.3-3.08a1.761,1.761,0,0,0,1.364-.462v-2.2l-1.32.132a1.54,1.54,0,0,0-.957.363,1.243,1.243,0,0,0-.3.913Q5.093-3.08,6.3-3.08ZM5.027-.726A3.824,3.824,0,0,1,2.464-1.54a2.973,2.973,0,0,1-.957-2.4A2.887,2.887,0,0,1,2.552-6.413,6.507,6.507,0,0,1,5.6-7.458l2.068-.308v-.462a1.27,1.27,0,0,0-.462-1.166A3.627,3.627,0,0,0,5.467-9.68a13.459,13.459,0,0,0-2.992.33v-2.464a12.27,12.27,0,0,1,4.422-.66,5.8,5.8,0,0,1,3.355.814A3.028,3.028,0,0,1,11.407-9V-.924h-3.1L8.041-1.8h-.11A3.355,3.355,0,0,1,5.027-.726Zm8.668-.22v-15.73h3.762v5.3h.088a5.361,5.361,0,0,1,3.476-1.1q3.344,0,3.344,3.1V-.946h-3.74V-8.338a1.212,1.212,0,0,0-.319-.957,1.721,1.721,0,0,0-1.111-.275,4.644,4.644,0,0,0-1.738.374v8.25ZM-17.248,24.076V9.292h4.136V21.106H-7.5v2.97Zm11.792.484V21.282h3.608V24.56Zm.22-5.522-.572-10.6H-1.54l-.528,10.6ZM.638,24.054V12.724H4.246v.99h.11a5.492,5.492,0,0,1,3.52-1.188A2.839,2.839,0,0,1,10.582,13.8h.088a6.167,6.167,0,0,1,3.762-1.276,3.339,3.339,0,0,1,2.31.715,3.023,3.023,0,0,1,.792,2.343v8.47h-3.74V16.64a1.262,1.262,0,0,0-.286-.935,1.376,1.376,0,0,0-.968-.275,4.357,4.357,0,0,0-1.584.374,1.262,1.262,0,0,0,.011.154q.011.088.011.11v7.986H7.238V16.64a1.232,1.232,0,0,0-.3-.935,1.382,1.382,0,0,0-.957-.275A3.885,3.885,0,0,0,4.4,15.8v8.25Z" transform="translate(33 29)" fill="#fff"/>
      </g>
    </g>
  </g>
</svg>
